<svg xmlns="http://www.w3.org/2000/svg" viewBox="0 0 59.86 73.91"><defs><style>.cls-1{opacity:0.5;}.cls-2{fill:#2d9cdb;}.cls-3{fill:#fff;}</style></defs><g id="Layer_2" data-name="Layer 2"><g id="Layer_1-2" data-name="Layer 1"><g class="cls-1"><path class="cls-2" d="M28.28,26.88H47.92A11.94,11.94,0,0,1,59.86,38.83V61.13a1.42,1.42,0,0,1-1.42,1.42H17.75a1.42,1.42,0,0,1-1.42-1.42V38.83A11.94,11.94,0,0,1,28.28,26.88Z"/><rect class="cls-3" x="24.91" y="2" width="26.38" height="26.38" rx="13.19" transform="translate(1.15 32.99) rotate(-47.46)"/><path class="cls-2" d="M38.09,30.38A15.16,15.16,0,1,1,52.93,18.5,2,2,0,0,1,49,17.63,11.19,11.19,0,0,0,38.1,4a11.19,11.19,0,1,0,8.24,18.76,2,2,0,0,1,2.95,2.7A15.22,15.22,0,0,1,38.09,30.38Z"/></g><path class="cls-3" d="M2,39.24H42.33a0,0,0,0,1,0,0V61.42A10.49,10.49,0,0,1,31.83,71.91H12.49A10.49,10.49,0,0,1,2,61.42V39.24A0,0,0,0,1,2,39.24Z" transform="translate(44.32 111.16) rotate(180)"/><path class="cls-2" d="M42.33,73.91H2a2,2,0,0,1,0-4H40.33V49.73a8.5,8.5,0,0,0-8.5-8.49H12.49A8.5,8.5,0,0,0,4,49.73V64.92a2,2,0,0,1-4,0V49.73A12.51,12.51,0,0,1,12.49,37.24H31.83a12.52,12.52,0,0,1,12.5,12.49V71.91A2,2,0,0,1,42.33,73.91Z"/><rect class="cls-3" x="8.97" y="12.86" width="26.38" height="26.38" rx="13.19"/><path class="cls-2" d="M22.16,41.24A15.19,15.19,0,1,1,37.35,26.05,15.21,15.21,0,0,1,22.16,41.24Zm0-26.38A11.19,11.19,0,1,0,33.35,26.05,11.2,11.2,0,0,0,22.16,14.86Z"/></g></g></svg>