<svg xmlns="http://www.w3.org/2000/svg" viewBox="0 0 44.5 40.06"><defs><style>.cls-1{fill:#fff;}.cls-2{fill:#2d9cdb;}.cls-3{opacity:0.5;}</style></defs><g id="Layer_2" data-name="Layer 2"><g id="Layer_1-2" data-name="Layer 1"><rect class="cls-1" x="22.25" y="12.27" width="20" height="25.54"/><path class="cls-2" d="M42.25,40.06h-20A2.25,2.25,0,0,1,20,37.81V12.27A2.25,2.25,0,0,1,22.25,10h20a2.25,2.25,0,0,1,0,4.5H24.5v21H40V33.33a2.25,2.25,0,0,1,4.5,0v4.48A2.25,2.25,0,0,1,42.25,40.06Z"/><rect class="cls-2" x="2.25" y="2.25" width="20" height="35.56"/><rect class="cls-1" x="6.98" y="26.98" width="3.49" height="5"/><rect class="cls-1" x="14.03" y="26.98" width="3.49" height="5"/><rect class="cls-1" x="6.98" y="17.51" width="3.49" height="5"/><rect class="cls-1" x="14.03" y="17.51" width="3.49" height="5"/><rect class="cls-1" x="6.98" y="8.03" width="3.49" height="5"/><rect class="cls-1" x="14.03" y="8.03" width="3.49" height="5"/><g class="cls-3"><rect class="cls-2" x="26.98" y="26.98" width="3.49" height="5"/><rect class="cls-2" x="34.03" y="26.98" width="3.49" height="5"/><rect class="cls-2" x="26.98" y="17.51" width="3.49" height="5"/><rect class="cls-2" x="34.03" y="17.51" width="3.49" height="5"/></g><path class="cls-2" d="M22.25,40.06h-20A2.25,2.25,0,0,1,0,37.81V2.25A2.25,2.25,0,0,1,2.25,0h20A2.25,2.25,0,0,1,24.5,2.25V37.81A2.25,2.25,0,0,1,22.25,40.06ZM4.5,35.56H20V4.5H4.5Z"/><path class="cls-2" d="M22.25,32.88A2.25,2.25,0,0,1,20,30.63V12.27A2.25,2.25,0,0,1,22.25,10h20a2.24,2.24,0,0,1,2.25,2.25V26.62a2.25,2.25,0,1,1-4.5,0V14.52H24.5V30.63A2.25,2.25,0,0,1,22.25,32.88Z"/></g></g></svg>