<svg id="Facebook" xmlns="http://www.w3.org/2000/svg" width="17.721" height="17.721" viewBox="0 0 17.721 17.721">
  <g id="Facebook-2" data-name="Facebook" transform="translate(-569.462 -273.781)" fill="none" stroke-linecap="round" stroke-linejoin="round">
    <path d="M586.038,273.781H570.607a1.145,1.145,0,0,0-1.145,1.145v15.431a1.145,1.145,0,0,0,1.145,1.145h7.921v-6.8H576.1v-2.762h2.424v-2.458a3.232,3.232,0,0,1,3.2-3.236c.987-.006,1.852.01,2.492.07v2.545h-1.773a1.078,1.078,0,0,0-1.078,1.078v2H584.1l-.338,2.762h-2.4v6.8h4.667a1.145,1.145,0,0,0,1.145-1.145V274.926A1.145,1.145,0,0,0,586.038,273.781Z" stroke="none"/>
    <path d="M 570.6068115234375 274.281005859375 C 570.251220703125 274.281005859375 569.9619750976562 274.5704650878906 569.9619750976562 274.9262084960938 L 569.9619750976562 290.3568115234375 C 569.9619750976562 290.7125549316406 570.251220703125 291.0020141601562 570.6068115234375 291.0020141601562 L 578.0281982421875 291.0020141601562 L 578.0281982421875 285.197021484375 L 576.103759765625 285.197021484375 C 575.82763671875 285.197021484375 575.603759765625 284.9731750488281 575.603759765625 284.697021484375 L 575.603759765625 281.9353637695312 C 575.603759765625 281.6592102050781 575.82763671875 281.4353637695312 576.103759765625 281.4353637695312 L 578.0281982421875 281.4353637695312 L 578.0281982421875 279.4778137207031 C 578.0281982421875 277.4317626953125 579.6870727539062 275.7558898925781 581.7261962890625 275.7420043945312 C 581.857421875 275.7411499023438 581.9866333007812 275.7406921386719 582.11328125 275.7406921386719 C 583.03271484375 275.7406921386719 583.7374877929688 275.7646484375 584.267822265625 275.8139038085938 C 584.52490234375 275.8377990722656 584.7215576171875 276.0535583496094 584.7215576171875 276.311767578125 L 584.7215576171875 278.8563232421875 C 584.7215576171875 279.1324462890625 584.4976806640625 279.3563232421875 584.2215576171875 279.3563232421875 L 582.44873046875 279.3563232421875 C 582.1300048828125 279.3563232421875 581.8707275390625 279.6158142089844 581.8707275390625 279.9347839355469 L 581.8707275390625 281.4353637695312 L 584.103515625 281.4353637695312 C 584.2467041015625 281.4353637695312 584.3829956054688 281.4967346191406 584.4779052734375 281.6039428710938 C 584.5728149414062 281.711181640625 584.6171875 281.8539123535156 584.5997924804688 281.9960327148438 L 584.2621459960938 284.7576904296875 C 584.2315063476562 285.0085144042969 584.0185546875 285.197021484375 583.765869140625 285.197021484375 L 581.8707275390625 285.197021484375 L 581.8707275390625 291.0020141601562 L 586.0377807617188 291.0020141601562 C 586.3933715820312 291.0020141601562 586.6826171875 290.7125549316406 586.6826171875 290.3568115234375 L 586.6826171875 274.9262084960938 C 586.6826171875 274.5704650878906 586.3933715820312 274.281005859375 586.0377807617188 274.281005859375 L 570.6068115234375 274.281005859375 M 570.6068115234375 273.781005859375 L 586.0377807617188 273.781005859375 C 586.6700439453125 273.781005859375 587.1826171875 274.2935180664062 587.1826171875 274.9262084960938 L 587.1826171875 290.3568115234375 C 587.1826171875 290.9890441894531 586.6700439453125 291.5020141601562 586.0377807617188 291.5020141601562 L 581.3707275390625 291.5020141601562 L 581.3707275390625 284.697021484375 L 583.765869140625 284.697021484375 L 584.103515625 281.9353637695312 L 581.3707275390625 281.9353637695312 L 581.3707275390625 279.9347839355469 C 581.3707275390625 279.3391418457031 581.853515625 278.8563232421875 582.44873046875 278.8563232421875 L 584.2215576171875 278.8563232421875 L 584.2215576171875 276.311767578125 C 583.5816040039062 276.2523193359375 582.7168579101562 276.2354431152344 581.7294921875 276.2420043945312 C 579.9559326171875 276.2540588378906 578.5281982421875 277.7042236328125 578.5281982421875 279.4778137207031 L 578.5281982421875 281.9353637695312 L 576.103759765625 281.9353637695312 L 576.103759765625 284.697021484375 L 578.5281982421875 284.697021484375 L 578.5281982421875 291.5020141601562 L 570.6068115234375 291.5020141601562 C 569.9744873046875 291.5020141601562 569.4619750976562 290.9890441894531 569.4619750976562 290.3568115234375 L 569.4619750976562 274.9262084960938 C 569.4619750976562 274.2935180664062 569.9744873046875 273.781005859375 570.6068115234375 273.781005859375 Z" stroke="none" fill="#fff"/>
  </g>
</svg>
