<svg xmlns="http://www.w3.org/2000/svg" viewBox="0 0 49.82 32.02"><defs><style>.cls-1{opacity:0.5;}.cls-2,.cls-3{fill:#2d9cdb;}.cls-2{stroke:#fff;stroke-linecap:round;stroke-miterlimit:10;stroke-width:3.05px;stroke-dasharray:113.79;}.cls-4{fill:#fff;}</style></defs><g id="Layer_2" data-name="Layer 2"><g id="Layer_1-2" data-name="Layer 1"><g class="cls-1"><path class="cls-2" d="M42.62,1.53H14A5.66,5.66,0,0,0,8.35,7.2V20.37A5.67,5.67,0,0,0,14,26h28.6a5.68,5.68,0,0,0,5.67-5.67V7.2A5.67,5.67,0,0,0,42.62,1.53Z"/></g><path class="cls-3" d="M34.28,7.51H5.67A5.67,5.67,0,0,0,0,13.18V26.35A5.67,5.67,0,0,0,5.67,32H34.28A5.68,5.68,0,0,0,40,26.35V13.18A5.68,5.68,0,0,0,34.28,7.51Z"/><path class="cls-4" d="M34.28,7.51H5.67A5.67,5.67,0,0,0,0,13.18V26.35A5.67,5.67,0,0,0,5.67,32H34.28A5.68,5.68,0,0,0,40,26.35V13.18A5.68,5.68,0,0,0,34.28,7.51Zm2.27,16.87h0a4.6,4.6,0,0,0-4.6,4.6H8a4.61,4.61,0,0,0-4.6-4.6h0V15.14h0A4.6,4.6,0,0,0,8,10.54H31.93a4.59,4.59,0,0,0,4.6,4.6h0Z"/><g class="cls-1"><circle class="cls-4" cx="20.44" cy="19.76" r="4.6"/></g></g></g></svg>