<svg xmlns="http://www.w3.org/2000/svg" viewBox="0 0 42.88 35.21"><defs><style>.cls-1{fill:#fff;}.cls-2{fill:#2d9cdb;}.cls-3{opacity:0.5;}</style></defs><g id="Layer_2" data-name="Layer 2"><g id="Layer_1-2" data-name="Layer 1"><polygon class="cls-1" points="31.04 17.2 31.04 8.12 21.44 17.2 21.44 8.12 11.85 17.2 11.85 2.25 2.25 2.25 2.25 32.96 11.85 32.96 21.44 32.96 31.04 32.96 40.63 32.96 40.63 8.12 31.04 17.2"/><path class="cls-2" d="M40.63,35.21H2.25A2.25,2.25,0,0,1,0,33V2.25A2.25,2.25,0,0,1,2.25,0h9.6A2.25,2.25,0,0,1,14.1,2.25V12l5.8-5.49a2.25,2.25,0,0,1,3.79,1.64V12l5.8-5.49a2.25,2.25,0,0,1,3.8,1.64V17.2a2.25,2.25,0,0,1-4.5,0V13.34L23,18.83a2.25,2.25,0,0,1-3.8-1.63V13.34l-5.8,5.49A2.25,2.25,0,0,1,9.6,17.2V4.5H4.5V30.71H38.38V26.34a2.25,2.25,0,1,1,4.5,0V33A2.25,2.25,0,0,1,40.63,35.21Z"/><path class="cls-2" d="M40.63,21.87a2.25,2.25,0,0,1-2.25-2.25V13.34l-5.8,5.49a2.25,2.25,0,0,1-3.79-1.63V13.34L23,18.83a2.25,2.25,0,0,1-3.8-1.63V13.34l-5.8,5.49A2.25,2.25,0,0,1,9.6,17.2V4.5H4.5V8.9A2.25,2.25,0,0,1,0,8.9V2.25A2.25,2.25,0,0,1,2.25,0h9.6A2.25,2.25,0,0,1,14.1,2.25V12l5.8-5.49a2.25,2.25,0,0,1,3.79,1.64V12l5.8-5.49a2.25,2.25,0,0,1,3.8,1.64V12l5.8-5.49a2.25,2.25,0,0,1,3.79,1.64v11.5A2.24,2.24,0,0,1,40.63,21.87Z"/><g class="cls-3"><rect class="cls-2" x="8.4" y="22.2" width="3.49" height="5"/><rect class="cls-2" x="19.7" y="22.2" width="3.49" height="5"/><rect class="cls-2" x="30.99" y="22.2" width="3.49" height="5"/></g></g></g></svg>