<svg xmlns="http://www.w3.org/2000/svg" viewBox="0 0 44.5 38.76"><defs><style>.cls-1{fill:#fff;}.cls-2{fill:#2d9cdb;}.cls-3{opacity:0.5;}</style></defs><g id="Layer_2" data-name="Layer 2"><g id="Layer_1-2" data-name="Layer 1"><rect class="cls-1" x="2.25" y="10.97" width="40.01" height="25.54" transform="translate(44.51 47.48) rotate(180)"/><path class="cls-2" d="M42.25,38.76H25.31a2.25,2.25,0,1,1,0-4.5H40v-21H2.25a2.25,2.25,0,0,1,0-4.5h40A2.25,2.25,0,0,1,44.5,11V36.51A2.25,2.25,0,0,1,42.25,38.76Z"/><path class="cls-2" d="M28.79,38.76H2.25A2.25,2.25,0,0,1,0,36.51V32.35a2.25,2.25,0,0,1,4.5,0v1.91H28.79a2.25,2.25,0,0,1,0,4.5ZM42.25,21.54A2.25,2.25,0,0,1,40,19.29V13.22H11.56a2.25,2.25,0,0,1,0-4.5H42.25A2.25,2.25,0,0,1,44.5,11v8.32A2.25,2.25,0,0,1,42.25,21.54Z"/><path class="cls-2" d="M42.25,31.72A2.25,2.25,0,0,1,40,29.47V13.22H4.5V25A2.25,2.25,0,0,1,0,25V11A2.25,2.25,0,0,1,2.25,8.72h40A2.25,2.25,0,0,1,44.5,11v18.5A2.24,2.24,0,0,1,42.25,31.72Z"/><g class="cls-3"><rect class="cls-2" x="15.24" y="2.25" width="14.02" height="8.72"/></g><path class="cls-2" d="M29.26,13.22h-14A2.25,2.25,0,0,1,13,11V2.25A2.25,2.25,0,0,1,15.24,0h14a2.25,2.25,0,0,1,2.25,2.25V11A2.25,2.25,0,0,1,29.26,13.22ZM17.49,8.72H27V4.5H17.49Z"/></g></g></svg>