<svg xmlns="http://www.w3.org/2000/svg" viewBox="0 0 2635.02 2284.54"><defs><style>.cls-1{opacity:0.03;}.cls-2{fill:none;stroke:#000;stroke-miterlimit:10;}</style></defs><g id="Layer_2" data-name="Layer 2"><g id="Layer_1-2" data-name="Layer 1"><g id="line" class="cls-1"><path class="cls-2" d="M505.23.39C932.07,341.47,1108,675.18,1190.16,914.24c104,302.67,66.7,480,204.92,742.15,180.69,342.76,501.35,527.1,734.77,627.69"/><path class="cls-2" d="M481.18,10.21C905.34,344,1086.43,665.46,1176.62,893.72c114.92,290.87,93.53,454,242.48,707.85,191.16,325.78,504.57,507.28,734.8,605.92"/><path class="cls-2" d="M457.14,20C878.6,346.52,1065,655.82,1163.08,873.2c126,279.22,120,427.82,280,673.54,201.07,308.72,507.79,487.48,734.82,584.16"/><path class="cls-2" d="M433.09,29.86c418.78,319.18,610.6,616.4,716.45,822.82,137.27,267.7,146.08,401.47,317.61,639.24,210.37,291.62,511,467.67,734.84,562.39"/><path class="cls-2" d="M409,39.68c416.1,311.89,613.54,597.07,727,792.48,148.75,256.29,171.75,375,355.17,604.93,219,274.57,514.23,447.87,734.87,540.64"/><path class="cls-2" d="M385,49.5c413.41,304.59,616.69,577.77,737.47,762.14,160.46,244.95,197,348.54,392.73,570.63,227.11,257.65,517.45,428.05,734.9,518.87"/><path class="cls-2" d="M360.94,59.32c410.73,297.3,620.05,558.47,748,731.8,172.44,233.63,221.75,322.11,430.29,536.32,234.56,240.94,520.67,408.25,734.92,497.11"/><path class="cls-2" d="M336.9,69.14c408,290,623.62,539.13,758.48,701.46,184.69,222.31,246.09,295.8,467.86,502,241.41,224.48,523.88,388.44,734.94,475.34"/><path class="cls-2" d="M312.85,79c405.35,282.71,627.41,519.72,769,671.12,197.21,210.91,270,269.72,505.42,467.71,247.75,208.37,527.11,368.64,735,453.58"/><path class="cls-2" d="M288.8,88.78C691.47,364.2,920.22,589,1068.3,729.56c210,199.38,293.52,243.94,543,433.41,253.63,192.63,530.33,348.83,735,431.81"/><path class="cls-2" d="M264.75,98.61c400,268.11,635.61,480.53,790,610.43,223.06,187.66,316.67,218.53,580.54,399.1,259.12,177.32,533.55,329,735,410.05"/><path class="cls-2" d="M240.71,108.43C638,369.25,880.65,569.14,1041.22,688.52c236.33,175.71,339.52,193.58,618.11,364.8,264.29,162.43,536.76,309.21,735,388.28"/><path class="cls-2" d="M216.66,118.25C611.27,371.77,861.06,559,1027.68,668c249.78,163.49,362.12,169.13,655.67,330.49,269.25,148,540,289.41,735.07,366.52"/><path class="cls-2" d="M192.61,128.07C584.53,374.3,841.55,548.56,1014.14,647.48c263.36,150.95,384.52,145.22,693.23,296.19,274.08,134,543.21,269.6,735.1,344.75"/><path class="cls-2" d="M168.56,137.89C557.8,376.83,822.09,538,1000.6,627c277,138.09,406.81,121.9,730.79,261.88,278.86,120.49,546.43,249.79,735.13,323"/><path class="cls-2" d="M144.51,147.71C531.07,379.35,802.62,527.2,987.06,606.44c290.7,124.89,429.05,99.15,768.36,227.58,283.64,107.36,549.64,230,735.15,301.22"/><path class="cls-2" d="M120.47,157.53C504.33,381.88,783.12,516.24,973.52,585.92c304.36,111.38,451.3,77,805.92,193.27C2068,873.8,2332.3,989.37,2514.61,1058.65"/><path class="cls-2" d="M96.42,167.36C477.6,384.4,763.55,505.12,960,565.4c318,97.58,473.63,55.39,843.48,159,293.54,82.2,556.09,190.37,735.2,257.69"/><path class="cls-2" d="M72.37,177.18c378.5,209.75,671.54,316.67,874.07,367.7,331.43,83.51,496.08,34.32,881.05,124.66,298.73,70.11,559.3,170.56,735.22,235.93"/><path class="cls-2" d="M48.32,187C424.13,389.45,724.16,482.47,932.9,524.36c344.78,69.2,518.72,13.73,918.61,90.36C2155.67,673,2414,765.47,2586.76,828.88"/><path class="cls-2" d="M24.27,196.82C397.4,392,704.3,471,919.36,503.84c358,54.7,541.56-6.42,956.17,56.05,309.83,46.69,565.74,131,735.28,192.41"/><path class="cls-2" d="M.23,206.64C370.67,394.51,684.32,459.42,905.82,483.32c371,40.05,564.64-26.19,993.73,21.75a3257,3257,0,0,1,735.3,170.64"/></g></g></g></svg>