<svg id="LinkedIn" xmlns="http://www.w3.org/2000/svg" width="17.73" height="17.729" viewBox="0 0 17.73 17.729">
  <g id="Path_81" data-name="Path 81" transform="translate(-690.126 -300.534)" fill="none" stroke-linecap="round" stroke-linejoin="round">
    <path d="M706.71,300.534H691.272a1.146,1.146,0,0,0-1.146,1.146v15.438a1.146,1.146,0,0,0,1.146,1.146H706.71a1.146,1.146,0,0,0,1.146-1.146V301.68A1.146,1.146,0,0,0,706.71,300.534Zm-11.437,15.249h-2.682v-8.664h2.682Zm-1.341-9.844a1.563,1.563,0,1,1,1.563-1.563A1.563,1.563,0,0,1,693.932,305.94Zm11.462,5.153v4.691h-2.682V310.8a1.528,1.528,0,0,0-3.056,0v4.984h-2.682v-8.664h2.682v.98a3.252,3.252,0,0,1,2.243-1.166l.577-.046a2.918,2.918,0,0,1,2.917,2.918Z" stroke="none"/>
    <path d="M 691.2716674804688 301.0339965820312 C 690.9156494140625 301.0339965820312 690.6259765625 301.3236389160156 690.6259765625 301.6796264648438 L 690.6259765625 317.1175231933594 C 690.6259765625 317.4735412597656 690.9156494140625 317.7632141113281 691.2716674804688 317.7632141113281 L 706.7099609375 317.7632141113281 C 707.0659790039062 317.7632141113281 707.3555908203125 317.4735412597656 707.3555908203125 317.1175231933594 L 707.3555908203125 301.6796264648438 C 707.3555908203125 301.3236389160156 707.0659790039062 301.0339965820312 706.7099609375 301.0339965820312 L 691.2716674804688 301.0339965820312 M 693.9320068359375 306.4396667480469 C 692.7944946289062 306.4396667480469 691.8690795898438 305.514404296875 691.8690795898438 304.3771057128906 C 691.8690795898438 303.2395629882812 692.7944946289062 302.3141174316406 693.9320068359375 302.3141174316406 C 695.069580078125 302.3141174316406 695.9950561523438 303.2395629882812 695.9950561523438 304.3771057128906 C 695.9950561523438 305.514404296875 695.069580078125 306.4396667480469 693.9320068359375 306.4396667480469 M 705.3941650390625 316.2832641601562 L 702.7122802734375 316.2832641601562 C 702.4361572265625 316.2832641601562 702.2122802734375 316.0593872070312 702.2122802734375 315.7832641601562 L 702.2122802734375 310.7987976074219 C 702.2122802734375 310.2321472167969 701.7510375976562 309.7711181640625 701.1841430664062 309.7711181640625 C 700.6174926757812 309.7711181640625 700.156494140625 310.2321472167969 700.156494140625 310.7987976074219 L 700.156494140625 315.7832641601562 C 700.156494140625 316.0593872070312 699.9326171875 316.2832641601562 699.656494140625 316.2832641601562 L 696.97412109375 316.2832641601562 C 696.697998046875 316.2832641601562 696.47412109375 316.0593872070312 696.47412109375 315.7832641601562 L 696.47412109375 307.1193542480469 C 696.47412109375 306.8432006835938 696.697998046875 306.6193542480469 696.97412109375 306.6193542480469 L 699.656494140625 306.6193542480469 C 699.8946533203125 306.6193542480469 700.0939331054688 306.7858581542969 700.1442260742188 307.0087890625 C 700.65478515625 306.6824340820312 701.2395629882812 306.4845581054688 701.8597412109375 306.435302734375 L 702.4368896484375 306.3892211914062 C 702.4501342773438 306.3881530761719 702.46337890625 306.3876342773438 702.4766845703125 306.3876342773438 C 704.361083984375 306.3876342773438 705.8941650390625 307.9207458496094 705.8941650390625 309.80517578125 L 705.8941650390625 315.7832641601562 C 705.8941650390625 316.0593872070312 705.6702880859375 316.2832641601562 705.3941650390625 316.2832641601562 M 695.2732543945312 316.2832641601562 L 692.59130859375 316.2832641601562 C 692.315185546875 316.2832641601562 692.09130859375 316.0593872070312 692.09130859375 315.7832641601562 L 692.09130859375 307.1193542480469 C 692.09130859375 306.8432006835938 692.315185546875 306.6193542480469 692.59130859375 306.6193542480469 L 695.2732543945312 306.6193542480469 C 695.5493774414062 306.6193542480469 695.7732543945312 306.8432006835938 695.7732543945312 307.1193542480469 L 695.7732543945312 315.7832641601562 C 695.7732543945312 316.0593872070312 695.5493774414062 316.2832641601562 695.2732543945312 316.2832641601562 M 691.2716674804688 300.5339965820312 L 706.7099609375 300.5339965820312 C 707.3426513671875 300.5339965820312 707.8555908203125 301.0469665527344 707.8555908203125 301.6796264648438 L 707.8555908203125 317.1175231933594 C 707.8555908203125 317.750244140625 707.3426513671875 318.2632141113281 706.7099609375 318.2632141113281 L 691.2716674804688 318.2632141113281 C 690.6389770507812 318.2632141113281 690.1259765625 317.750244140625 690.1259765625 317.1175231933594 L 690.1259765625 301.6796264648438 C 690.1259765625 301.0469665527344 690.6389770507812 300.5339965820312 691.2716674804688 300.5339965820312 Z M 693.9320068359375 305.9396667480469 C 694.795654296875 305.9396667480469 695.4950561523438 305.2402038574219 695.4950561523438 304.3771057128906 C 695.4950561523438 303.5135498046875 694.795654296875 302.8141174316406 693.9320068359375 302.8141174316406 C 693.0689697265625 302.8141174316406 692.3690795898438 303.5135498046875 692.3690795898438 304.3771057128906 C 692.3690795898438 305.2402038574219 693.0689697265625 305.9396667480469 693.9320068359375 305.9396667480469 Z M 705.3941650390625 315.7832641601562 L 705.3941650390625 309.80517578125 C 705.3941650390625 308.1939392089844 704.087890625 306.8876342773438 702.4766845703125 306.8876342773438 L 701.8995361328125 306.9337158203125 C 701.0045166015625 307.0047912597656 700.2060546875 307.4397888183594 699.656494140625 308.099609375 L 699.656494140625 307.1193542480469 L 696.97412109375 307.1193542480469 L 696.97412109375 315.7832641601562 L 699.656494140625 315.7832641601562 L 699.656494140625 310.7987976074219 C 699.656494140625 309.9550476074219 700.3403930664062 309.2711181640625 701.1841430664062 309.2711181640625 C 702.02783203125 309.2711181640625 702.7122802734375 309.9550476074219 702.7122802734375 310.7987976074219 L 702.7122802734375 315.7832641601562 L 705.3941650390625 315.7832641601562 Z M 695.2732543945312 315.7832641601562 L 695.2732543945312 307.1193542480469 L 692.59130859375 307.1193542480469 L 692.59130859375 315.7832641601562 L 695.2732543945312 315.7832641601562 Z" stroke="none" fill="#fff"/>
  </g>
</svg>
