<svg xmlns="http://www.w3.org/2000/svg" viewBox="0 0 53.84 53.84"><defs><style>.cls-1{fill:#fff;}.cls-2{fill:#2d9cdb;}.cls-3{opacity:0.5;}</style></defs><g id="Layer_2" data-name="Layer 2"><g id="Layer_1-2" data-name="Layer 1"><circle class="cls-1" cx="26.92" cy="26.92" r="18.02"/><path class="cls-2" d="M26.92,46.86A19.94,19.94,0,1,1,45.83,20.58a1.92,1.92,0,0,1-3.64,1.22A16.11,16.11,0,1,0,43,26.92a1.92,1.92,0,1,1,3.84,0A20,20,0,0,1,26.92,46.86Z"/><g class="cls-3"><circle class="cls-2" cx="26.92" cy="26.92" r="6.47"/></g><path class="cls-2" d="M26.92,35.31a8.39,8.39,0,1,1,8.39-8.39A8.39,8.39,0,0,1,26.92,35.31Zm0-12.94a4.56,4.56,0,1,0,4.56,4.55A4.55,4.55,0,0,0,26.92,22.37Z"/><path class="cls-2" d="M51.92,28.84h-6.4a1.92,1.92,0,0,1,0-3.84h6.4a1.92,1.92,0,1,1,0,3.84Z"/><path class="cls-2" d="M8.32,28.84H1.92a1.92,1.92,0,0,1,0-3.84h6.4a1.92,1.92,0,0,1,0,3.84Z"/><path class="cls-2" d="M26.92,10.24A1.92,1.92,0,0,1,25,8.32V1.92a1.92,1.92,0,1,1,3.84,0v6.4A1.92,1.92,0,0,1,26.92,10.24Z"/><path class="cls-2" d="M26.92,53.84A1.92,1.92,0,0,1,25,51.92v-6.4a1.92,1.92,0,1,1,3.84,0v6.4A1.92,1.92,0,0,1,26.92,53.84Z"/></g></g></svg>