<svg xmlns="http://www.w3.org/2000/svg" viewBox="0 0 65.92 70.38"><defs><style>.cls-1{fill:#fff;}.cls-2{fill:#2d9cdb;}.cls-3{opacity:0.5;}</style></defs><g id="Layer_2" data-name="Layer 2"><g id="Layer_1-2" data-name="Layer 1"><path class="cls-1" d="M18.06,7.22a23.85,23.85,0,1,1-3.72,33.52A23.87,23.87,0,0,1,18.06,7.22Z"/><path class="cls-2" d="M33,51.68A25.85,25.85,0,0,1,11.16,12a2,2,0,1,1,3.38,2.14,21.83,21.83,0,0,0-3.42,11.77A21.82,21.82,0,0,0,33,47.68,21.82,21.82,0,0,0,54.8,25.82,21.82,21.82,0,0,0,32.94,4,21.58,21.58,0,0,0,19.31,8.78a2,2,0,0,1-2.5-3.12A25.85,25.85,0,1,1,33,51.68Z"/><g class="cls-3"><path class="cls-1" d="M44.54,57.54l6.53,10.12a1.57,1.57,0,0,0,2.69-.07l2.49-4.34a1.57,1.57,0,0,1,1.37-.79h4.72A1.58,1.58,0,0,0,63.66,60L56.5,49a1.57,1.57,0,0,0-2.4-.29,42.52,42.52,0,0,1-9,6.66A1.56,1.56,0,0,0,44.54,57.54Z"/><path class="cls-2" d="M52.39,70.38a3.57,3.57,0,0,1-3-1.64L42.86,58.62a3.6,3.6,0,0,1-.57-1.94,3.55,3.55,0,0,1,1.82-3.11,40.28,40.28,0,0,0,8.6-6.35,3.52,3.52,0,0,1,2.46-1,3.57,3.57,0,0,1,3,1.63l7.16,11.07a3.55,3.55,0,0,1,.58,1.94,3.59,3.59,0,0,1-3.58,3.59H57.86L55.5,68.58A3.59,3.59,0,0,1,52.39,70.38ZM46.47,56.83,52.37,66l2.14-3.73a3.6,3.6,0,0,1,3.11-1.8h3.94l-6.46-10A44.4,44.4,0,0,1,46.47,56.83Z"/></g><g class="cls-3"><path class="cls-1" d="M9.42,49,2.26,60a1.58,1.58,0,0,0,1.32,2.44H8.3a1.57,1.57,0,0,1,1.37.79l2.49,4.34a1.57,1.57,0,0,0,2.69.07l6.53-10.12a1.56,1.56,0,0,0-.54-2.22,42.52,42.52,0,0,1-9-6.66A1.57,1.57,0,0,0,9.42,49Z"/><path class="cls-2" d="M13.53,70.38a3.6,3.6,0,0,1-3.11-1.8L8.06,64.46H3.58a3.58,3.58,0,0,1-3-5.53L7.74,47.87a3.56,3.56,0,0,1,3-1.64,3.49,3.49,0,0,1,2.46,1,40.38,40.38,0,0,0,8.59,6.33,3.57,3.57,0,0,1,1.83,3.12,3.6,3.6,0,0,1-.57,1.94L16.54,68.74A3.57,3.57,0,0,1,13.53,70.38ZM4.36,60.46H8.3a3.6,3.6,0,0,1,3.11,1.8L13.55,66l5.9-9.16a44.4,44.4,0,0,1-8.63-6.36ZM9.42,49h0Z"/></g><g class="cls-3"><path class="cls-2" d="M33.48,35l7.29,3.84a1.11,1.11,0,0,0,1.61-1.17L41,29.5a1.09,1.09,0,0,1,.32-1l5.9-5.75a1.11,1.11,0,0,0-.62-1.89l-8.15-1.19a1.12,1.12,0,0,1-.84-.6L34,11.7a1.11,1.11,0,0,0-2,0l-3.64,7.39a1.12,1.12,0,0,1-.84.6l-8.15,1.19a1.11,1.11,0,0,0-.62,1.89l5.9,5.75a1.09,1.09,0,0,1,.32,1l-1.39,8.13a1.11,1.11,0,0,0,1.61,1.17L32.44,35A1.12,1.12,0,0,1,33.48,35Z"/></g></g></g></svg>