<svg xmlns="http://www.w3.org/2000/svg" viewBox="0 0 48.17 48.42"><defs><style>.cls-1{fill:#fff;}.cls-2{opacity:0.5;}</style></defs><g id="Layer_2" data-name="Layer 2"><g id="Layer_1-2" data-name="Layer 1"><path class="cls-1" d="M19.07,46.32a2.1,2.1,0,0,1-1.82-1l-2.84-5L12,42.71a1.35,1.35,0,0,1-1.92-1.89l2.94-3a2.11,2.11,0,0,1,3.32.44l2.57,4.5,6.62-19.87L10.72,27.82a1.35,1.35,0,0,1-.85-2.57l16-5.32a2.12,2.12,0,0,1,2.76,2,2.05,2.05,0,0,1-.1.65L21.06,44.89A2.1,2.1,0,0,1,19.07,46.32Z"/><g class="cls-2"><path class="cls-1" d="M46.65,20.23,21.42,34.8a3,3,0,0,1-4.55-2.63V3A3,3,0,0,1,21.42.41L46.65,15A3,3,0,0,1,46.65,20.23Z"/></g><rect class="cls-1" x="28.62" y="14.32" width="7.78" height="2.63" rx="1" transform="translate(-1.51 27.63) rotate(-45.09)"/><rect class="cls-1" x="22.56" y="10.69" width="7.78" height="2.63" rx="1" transform="translate(10.08 36) rotate(-80.11)"/><rect class="cls-1" x="31.6" y="20.59" width="7.78" height="2.63" rx="1" transform="translate(-3.3 6.59) rotate(-10.14)"/><path class="cls-1" d="M5.53,48.42a2.06,2.06,0,0,1-1.47-.6L.6,44.36A2,2,0,0,1,0,42.9a2.07,2.07,0,0,1,.63-1.5L8.15,34l-5-2.85a2.09,2.09,0,0,1,.38-3.8l22.3-7.44a2.12,2.12,0,0,1,2.76,2,2.05,2.05,0,0,1-.1.65L21.06,44.89A1.35,1.35,0,0,1,18.5,44l7.05-21.16L5.67,29.5l4.51,2.57a2.1,2.1,0,0,1,.43,3.32L3,42.91l2.57,2.56,1.07-1.09a1.35,1.35,0,0,1,1.93,1.9L7,47.8A2.1,2.1,0,0,1,5.53,48.42ZM6,45.9ZM2.52,42.47h0Zm6.2-9Z"/></g></g></svg>