<svg xmlns="http://www.w3.org/2000/svg" viewBox="0 0 40.47 54.61"><defs><style>.cls-1{opacity:0.5;}.cls-2{fill:#fff;}</style></defs><g id="Layer_2" data-name="Layer 2"><g id="Layer_1-2" data-name="Layer 1"><g class="cls-1"><path class="cls-2" d="M19.84,19.59H33.21a7.25,7.25,0,0,1,7.25,7.25V42.18a0,0,0,0,1,0,0H12.59a0,0,0,0,1,0,0V26.84A7.25,7.25,0,0,1,19.84,19.59Z"/><path class="cls-2" d="M26.53,20.94A10.47,10.47,0,0,1,16.06,10.48a10.47,10.47,0,0,1,20.94,0,10.53,10.53,0,0,1-1.07,4.61,1.34,1.34,0,0,1-1.8.62,1.35,1.35,0,0,1-.62-1.81,7.9,7.9,0,0,0,.79-3.42,7.77,7.77,0,1,0-7.77,7.78,7.77,7.77,0,0,0,4.66-1.55,1.35,1.35,0,0,1,1.89.27,1.36,1.36,0,0,1-.27,1.89A10.4,10.4,0,0,1,26.53,20.94Z"/></g><path class="cls-2" d="M14.25,50a12.26,12.26,0,1,1,9.47-4.46h0A12.22,12.22,0,0,1,14.25,50Zm0-21.83a9.57,9.57,0,1,0,6.08,2.19A9.53,9.53,0,0,0,14.26,28.21Zm8.42,16.51h0Z"/><rect class="cls-2" x="2.35" y="45.06" width="3.6" height="9.94" rx="0.98" transform="translate(32.78 8.79) rotate(39.51)"/></g></g></svg>