<svg xmlns="http://www.w3.org/2000/svg" viewBox="0 0 59.88 41.93"><defs><style>.cls-1{opacity:0.5;}.cls-2{fill:#fff;}</style></defs><g id="Layer_2" data-name="Layer 2"><g id="Layer_1-2" data-name="Layer 1"><g class="cls-1"><rect class="cls-2" x="29.58" width="30.3" height="41.93" rx="4.61"/></g><path class="cls-2" d="M34,36.73a2.48,2.48,0,0,1-2.48-2.47V29.6H17.2a2.49,2.49,0,0,1-2.49-2.48V16.62a2.49,2.49,0,0,1,2.49-2.47h2a1.44,1.44,0,1,1,0,2.87H17.59v9.7H31.88a2.49,2.49,0,0,1,2.49,2.48v4.18L47.51,21.87l-4.22-3.69A1.44,1.44,0,0,1,45.18,16l4.57,4a2.46,2.46,0,0,1,0,3.73L35.6,36.12A2.48,2.48,0,0,1,34,36.73ZM47.86,22.17h0Zm0-.6h0Z"/><path class="cls-2" d="M34,36.73a2.48,2.48,0,0,1-2.48-2.47V29.2a1.44,1.44,0,0,1,2.88,0v4.18L47.51,21.87,34.37,10.37v3.12A3.54,3.54,0,0,1,30.83,17H24.49a1.44,1.44,0,1,1,0-2.87h6.34a.66.66,0,0,0,.66-.66v-4A2.49,2.49,0,0,1,34,7a2.41,2.41,0,0,1,1.63.63L49.75,20a2.46,2.46,0,0,1,0,3.73L35.6,36.12A2.48,2.48,0,0,1,34,36.73ZM47.86,22.17h0Zm0-.6h0ZM33.71,9.8Z"/><path class="cls-2" d="M27.83,35.6H18.55a1.44,1.44,0,1,1,0-2.88h9.28a1.44,1.44,0,1,1,0,2.88Z"/><path class="cls-2" d="M23.19,11.37H13.91a1.44,1.44,0,1,1,0-2.87h9.28a1.44,1.44,0,1,1,0,2.87Z"/><path class="cls-2" d="M10.72,23.31H1.44a1.44,1.44,0,1,1,0-2.87h9.28a1.44,1.44,0,1,1,0,2.87Z"/></g></g></svg>