<svg xmlns="http://www.w3.org/2000/svg" viewBox="0 0 46.02 46.02"><defs><style>.cls-1{fill:#fff;}.cls-2{opacity:0.5;}</style></defs><g id="Layer_2" data-name="Layer 2"><g id="Layer_1-2" data-name="Layer 1"><path class="cls-1" d="M46,1A1,1,0,0,0,45,0L43.59,0C27.39,0,18,12.11,14.45,22.14a1,1,0,0,0,.24,1l8.17,8.17a1,1,0,0,0,1.06.24C34.21,27.73,46,18.7,46,2.67,46,2.12,46,1.55,46,1ZM24.89,27a1,1,0,0,1-1.12-.21L19.2,22.26a1,1,0,0,1-.2-1.12c2.5-5.55,8.9-16,22-17.18A1,1,0,0,1,42.08,5C41.18,15.29,34.34,22.77,24.89,27Z"/><path class="cls-1" d="M33.35,31.28l-.93.54a1.41,1.41,0,0,0-.66.88,11.1,11.1,0,0,1-1.06,2.52A1,1,0,0,1,28.9,35l-.06-.15a1,1,0,0,0-1.33-.6l-1,.41A1,1,0,0,0,26,35.87a6.81,6.81,0,0,1-.75,5.27,1,1,0,0,0,1.21,1.42,12.28,12.28,0,0,0,4.72-3,13.37,13.37,0,0,0,3.7-7.24A1,1,0,0,0,33.35,31.28Z"/><path class="cls-1" d="M11.74,18.52a1,1,0,0,0-.6-1.33L11,17.14a1,1,0,0,1-.18-1.81,11.27,11.27,0,0,1,2.49-1,1.52,1.52,0,0,0,.86-.65l.56-1a1,1,0,0,0-1.06-1.49,13.38,13.38,0,0,0-7.21,3.7,12.44,12.44,0,0,0-3,4.72A1,1,0,0,0,4.9,20.83a6.74,6.74,0,0,1,5.26-.75,1,1,0,0,0,1.18-.59Z"/><g class="cls-2"><path class="cls-1" d="M26.93,19.12a1.92,1.92,0,1,1,2.71,0A1.91,1.91,0,0,1,26.93,19.12Z"/></g><g class="cls-2"><path class="cls-1" d="M29.76,12.14a1.09,1.09,0,0,0,0,.36c.81,4.88,7.08,4.89,7.91,0a1.09,1.09,0,0,0,0-.36C36.88,7.26,30.57,7.26,29.76,12.14Zm4.91,1.14a1.35,1.35,0,0,1-1.9,0,1.34,1.34,0,1,1,1.9-1.9A1.35,1.35,0,0,1,34.67,13.28Z"/></g><g class="cls-2"><path class="cls-1" d="M19.55,34.36C16.6,41,9.13,45.27,1.08,46A1,1,0,0,1,0,44.94c.76-7.63,5.12-15.19,12.05-18.1a1,1,0,0,1,1.09.23l.21.21a1,1,0,0,1-.13,1.53c-6.28,4.3-7.62,8.32-7.9,10.81a1,1,0,0,0,1.09,1.09c2.61-.26,6.9-1.54,11.21-7.55a1,1,0,0,1,1.51-.11l.2.21A1.08,1.08,0,0,1,19.55,34.36Z"/></g></g></g></svg>