<svg xmlns="http://www.w3.org/2000/svg" viewBox="0 0 48.75 47.82"><defs><style>.cls-1{opacity:0.5;}.cls-2,.cls-3{fill:#2d9cdb;}.cls-2{stroke:#fff;stroke-linecap:round;stroke-miterlimit:10;stroke-width:2.99px;stroke-dasharray:111.47;}.cls-4{fill:#fff;}</style></defs><g id="Layer_2" data-name="Layer 2"><g id="Layer_1-2" data-name="Layer 1"><g class="cls-1"><path class="cls-2" d="M45.07,14.77,33.35,40.22A5.54,5.54,0,0,1,26,42.94L14.26,37.55a5.56,5.56,0,0,1-2.72-7.37L23.26,4.73A5.57,5.57,0,0,1,30.63,2L42.35,7.4A5.56,5.56,0,0,1,45.07,14.77Z"/><path class="cls-3" d="M33.72,10.06,29.15,37.71a5.55,5.55,0,0,1-6.39,4.57L10,40.18a5.56,5.56,0,0,1-4.57-6.39L10,6.14a5.56,5.56,0,0,1,6.39-4.57L29.15,3.68A5.55,5.55,0,0,1,33.72,10.06Z"/><path class="cls-4" d="M33.72,10.06,29.15,37.71a5.55,5.55,0,0,1-6.39,4.57L10,40.18a5.56,5.56,0,0,1-4.57-6.39L10,6.14a5.56,5.56,0,0,1,6.39-4.57L29.15,3.68A5.55,5.55,0,0,1,33.72,10.06ZM17.78,5.16v0A4.52,4.52,0,0,1,12.6,8.9h0L8.76,32h0a4.51,4.51,0,0,1,3.71,5.18v0l8.93,1.48v0A4.51,4.51,0,0,1,26.59,35h0l3.82-23.12h0A4.51,4.51,0,0,1,26.7,6.66v0Z"/><g class="cls-1"><circle class="cls-4" cx="19.67" cy="21.48" r="4.51"/></g></g><path class="cls-4" d="M42.56,38.2a2.63,2.63,0,0,1-2.63-2.62V31.31a2.63,2.63,0,0,1,2.63-2.62h6.19V25.45a6.38,6.38,0,0,0-6.37-6.38h-36A6.38,6.38,0,0,0,0,25.45v16a6.38,6.38,0,0,0,6.38,6.38h36a6.38,6.38,0,0,0,6.37-6.38V38.2Z"/><path class="cls-4" d="M42.56,30.54a.77.77,0,0,0-.77.77v4.27a.77.77,0,0,0,.77.77h6.19V30.54Zm3,3.65a.75.75,0,1,1,.75-.74A.75.75,0,0,1,45.53,34.19Z"/></g></g></svg>