<svg xmlns="http://www.w3.org/2000/svg" viewBox="0 0 73.55 47.27"><defs><style>.cls-1{opacity:0.5;}.cls-2{fill:#fff;}.cls-3{fill:#2d9cdb;}</style></defs><g id="Layer_2" data-name="Layer 2"><g id="Layer_1-2" data-name="Layer 1"><g class="cls-1"><path class="cls-2" d="M62.93,2.25H20.69a8.37,8.37,0,0,0-8.37,8.37V30.07a8.37,8.37,0,0,0,8.37,8.37H62.93a8.38,8.38,0,0,0,8.37-8.37V10.62A8.38,8.38,0,0,0,62.93,2.25Z"/><path class="cls-3" d="M62.93,40.7H20.69A10.64,10.64,0,0,1,10.07,30.07V10.62A10.63,10.63,0,0,1,20.69,0H62.93a2.26,2.26,0,0,1,0,4.51H20.69a6.12,6.12,0,0,0-6.11,6.11V30.07a6.12,6.12,0,0,0,6.11,6.12H62.93a6.13,6.13,0,0,0,6.12-6.12V10.62a6.07,6.07,0,0,0-1.14-3.54,2.26,2.26,0,0,1,3.68-2.62,10.62,10.62,0,0,1,2,6.16V30.07A10.64,10.64,0,0,1,62.93,40.7Z"/></g><path class="cls-2" d="M50.61,11.09H8.37A8.37,8.37,0,0,0,0,19.46V38.9a8.37,8.37,0,0,0,8.37,8.37H50.61A8.38,8.38,0,0,0,59,38.9V19.46A8.37,8.37,0,0,0,50.61,11.09Z"/><path class="cls-3" d="M50.61,11.09H8.37A8.37,8.37,0,0,0,0,19.46V38.9a8.37,8.37,0,0,0,8.37,8.37H50.61A8.38,8.38,0,0,0,59,38.9V19.46A8.37,8.37,0,0,0,50.61,11.09ZM54,36h0a6.8,6.8,0,0,0-6.79,6.8v0H11.82v0A6.8,6.8,0,0,0,5,36H5V22.36H5a6.79,6.79,0,0,0,6.79-6.8H47.14a6.8,6.8,0,0,0,6.79,6.8h0Z"/><g class="cls-1"><circle class="cls-3" cx="30.17" cy="29.18" r="6.79"/></g></g></g></svg>