<svg xmlns="http://www.w3.org/2000/svg" viewBox="0 0 54.79 58.48"><defs><style>.cls-1{opacity:0.5;}.cls-2{fill:#fff;}.cls-3{fill:#2d9cdb;}</style></defs><g id="Layer_2" data-name="Layer 2"><g id="Layer_1-2" data-name="Layer 1"><g class="cls-1"><path class="cls-2" d="M30.08,21H45.44a9.34,9.34,0,0,1,9.34,9.34V47.82a1.11,1.11,0,0,1-1.11,1.11H21.85a1.11,1.11,0,0,1-1.11-1.11V30.37A9.34,9.34,0,0,1,30.08,21Z"/><rect class="cls-3" x="27.45" y="1.56" width="20.64" height="20.64" rx="10.32" transform="translate(3.48 31.68) rotate(-47.46)"/><path class="cls-2" d="M37.76,23.76a11.9,11.9,0,1,1,11.6-9.29,1.56,1.56,0,1,1-3-.68,8.78,8.78,0,1,0-2.1,4,1.57,1.57,0,0,1,2.31,2.12A12,12,0,0,1,37.76,23.76Z"/></g><path class="cls-2" d="M35.84,53.6V34.37a2,2,0,0,0-2-1.95H5.21a2,2,0,0,0-1.95,1.95V53.6ZM6.52,35.68H32.58V50.34H6.52ZM39.1,55.23v1.3a2,2,0,0,1-2,1.95H2A2,2,0,0,1,0,56.53v-1.3H16.29a.82.82,0,0,0,.82.81H22a.82.82,0,0,0,.82-.81Z"/></g></g></svg>