<svg xmlns="http://www.w3.org/2000/svg" viewBox="0 0 48.55 31.75"><defs><style>.cls-1{opacity:0.5;}.cls-2{fill:#2d9cdb;}.cls-3{fill:#fff;}</style></defs><g id="Layer_2" data-name="Layer 2"><g id="Layer_1-2" data-name="Layer 1"><g class="cls-1"><path class="cls-2" d="M43,0H15.22A5.51,5.51,0,0,0,9.71,5.51V18.32a5.51,5.51,0,0,0,5.51,5.51H43a5.52,5.52,0,0,0,5.51-5.51V5.51A5.52,5.52,0,0,0,43,0Z"/></g><g class="cls-1"><path class="cls-3" d="M43,0H15.22A5.51,5.51,0,0,0,9.71,5.51V18.32a5.51,5.51,0,0,0,5.51,5.51H43a5.52,5.52,0,0,0,5.51-5.51V5.51A5.52,5.52,0,0,0,43,0Zm2.21,16.4h0a4.47,4.47,0,0,0-4.47,4.47v0H17.5v0A4.48,4.48,0,0,0,13,16.4h0v-9h0A4.48,4.48,0,0,0,17.5,3H40.76a4.47,4.47,0,0,0,4.47,4.47h0Z"/></g><g class="cls-1"><circle class="cls-3" cx="29.58" cy="11.91" r="4.47"/></g><path class="cls-3" d="M4.94,24.84H1a1,1,0,0,1-1-1v-1a1,1,0,0,1,1-1h4a1,1,0,0,1,1,1v1A1,1,0,0,1,4.94,24.84ZM4,18.91V11a1,1,0,0,0-1-1H3a1,1,0,0,0-1,1v7.9a1,1,0,0,0,1,1H3A1,1,0,0,0,4,18.91ZM2,27.8v3a1,1,0,0,0,1,1H3a1,1,0,0,0,1-1v-3a1,1,0,0,0-1-1H3A1,1,0,0,0,2,27.8Zm11.85-7.9H9.88a1,1,0,0,1-1-1v-1a1,1,0,0,1,1-1h3.95a1,1,0,0,1,1,1v1A1,1,0,0,1,13.83,19.9Zm-1-5.92V11a1,1,0,0,0-1-1h0a1,1,0,0,0-1,1v3a1,1,0,0,0,1,1h0A1,1,0,0,0,12.84,14Zm-2,8.88v7.9a1,1,0,0,0,1,1h0a1,1,0,0,0,1-1v-7.9a1,1,0,0,0-1-1h0A1,1,0,0,0,10.86,22.86Zm11.86,2h-4a1,1,0,0,1-1-1v-1a1,1,0,0,1,1-1h4a1,1,0,0,1,1,1v1A1,1,0,0,1,22.72,24.84Zm-1-5.93V11a1,1,0,0,0-1-1h0a1,1,0,0,0-1,1v7.9a1,1,0,0,0,1,1h0A1,1,0,0,0,21.73,18.91Zm-2,8.89v3a1,1,0,0,0,1,1h0a1,1,0,0,0,1-1v-3a1,1,0,0,0-1-1h0A1,1,0,0,0,19.75,27.8Z"/></g></g></svg>