<svg xmlns="http://www.w3.org/2000/svg" viewBox="0 0 45.3 42.36"><defs><style>.cls-1{opacity:0.5;}.cls-2{fill:#fff;}</style></defs><g id="Layer_2" data-name="Layer 2"><g id="Layer_1-2" data-name="Layer 1"><g class="cls-1"><path class="cls-2" d="M39,26.34H35.77a1,1,0,0,1-1-1V22.07a1,1,0,0,1,1-1H39a1,1,0,0,1,1,1v3.27A1,1,0,0,1,39,26.34Zm-7.9-13.17H27.87a1,1,0,0,0-1,1v3.27a1,1,0,0,0,1,1h3.27a1,1,0,0,0,1-1V14.17A1,1,0,0,0,31.14,13.17Zm7.9,0H35.77a1,1,0,0,0-1,1v3.27a1,1,0,0,0,1,1H39a1,1,0,0,0,1-1V14.17A1,1,0,0,0,39,13.17Zm-15.81,7.9H20a1,1,0,0,0-1,1v3.27a1,1,0,0,0,1,1h3.26a1,1,0,0,0,1-1V22.07A1,1,0,0,0,23.23,21.07Zm7.91,0H27.87a1,1,0,0,0-1,1v3.27a1,1,0,0,0,1,1h3.27a1,1,0,0,0,1-1V22.07A1,1,0,0,0,31.14,21.07Zm-7.91-7.9H20a1,1,0,0,0-1,1v3.27a1,1,0,0,0,1,1h3.26a1,1,0,0,0,1-1V14.17A1,1,0,0,0,23.23,13.17ZM45.3,3.63v27a1,1,0,0,1-1,1H14.7a1,1,0,0,1-1-1v-27a1,1,0,0,1,1-1h1.95a1,1,0,0,1,1,1V4.8a1,1,0,0,0,.28.7c2.26,2.24,5,.66,5-1.55V2.63H35.09a1,1,0,0,1,1,1V4.8a1,1,0,0,0,.27.7c2.26,2.24,5,.66,5-1.55V2.63H44.3A1,1,0,0,1,45.3,3.63Zm-3.63,6.9H17.33a1,1,0,0,0-1,1V28a1,1,0,0,0,1,1H41.67a1,1,0,0,0,1-1V11.53A1,1,0,0,0,41.67,10.53ZM40,1.32a1.32,1.32,0,1,0-2.64,0V4A1.32,1.32,0,1,0,40,4ZM21.6,4A1.32,1.32,0,1,1,19,4V1.32a1.32,1.32,0,1,1,2.63,0Z"/></g><path class="cls-2" d="M11.17,42.36a2.31,2.31,0,0,1-.69-.11L8.6,41.67A1.36,1.36,0,0,1,7.72,40a1.34,1.34,0,0,1,1.69-.88L11,39.6c.85-1.17,1.69-2.2,3.43-2.36S17.23,38,18.26,39l1.3-.68a10.06,10.06,0,0,1-.16-1.53,3.81,3.81,0,0,1,.91-2.56c1.13-1.35,2.47-1.44,3.9-1.47l.43-1.39c-1.16-.85-2.2-1.69-2.36-3.43,0-.13,0-.27,0-.39A4.75,4.75,0,0,1,24,24.09l-.67-1.29a10.32,10.32,0,0,1-1.54.16A3.77,3.77,0,0,1,19.22,22c-1.34-1.12-1.44-2.47-1.47-3.89l-1.39-.43c-.85,1.16-1.69,2.2-3.43,2.35a2.48,2.48,0,0,1-.38,0,4.79,4.79,0,0,1-3.42-1.72L7.84,19A9.26,9.26,0,0,1,8,20.58a3.77,3.77,0,0,1-.92,2.56C6,24.48,4.62,24.57,3.19,24.61L2.76,26c1.16.85,2.2,1.69,2.36,3.43,0,.14,0,.27,0,.39a4.76,4.76,0,0,1-1.72,3.4l.67,1.3a8.94,8.94,0,0,1,1.54-.16,3.77,3.77,0,0,1,2.55.91,3.49,3.49,0,0,1,.34.31,1.35,1.35,0,0,1-1.94,1.88.77.77,0,0,0-.13-.12,1.11,1.11,0,0,0-.82-.28,8.81,8.81,0,0,0-1.35.16A2.36,2.36,0,0,1,1.81,36L.9,34.25a2.23,2.23,0,0,1-.27-1.09,2.32,2.32,0,0,1,.66-1.63c.87-.91,1.14-1.24,1.14-1.71v-.13c-.05-.58-.3-.81-1.44-1.64a2.35,2.35,0,0,1-1-1.92,2.31,2.31,0,0,1,.11-.69l.58-1.88a2.36,2.36,0,0,1,2.2-1.65c1.43,0,1.76-.07,2.12-.51a1.08,1.08,0,0,0,.29-.82,8.48,8.48,0,0,0-.16-1.32,3.17,3.17,0,0,1,0-.41,2.32,2.32,0,0,1,1.26-2.08l1.74-.91a2.37,2.37,0,0,1,2.72.39c1,.95,1.28,1.18,1.87,1.14s.78-.3,1.6-1.44a2.41,2.41,0,0,1,2.62-.89l1.88.59a2.35,2.35,0,0,1,1.64,2.2c0,1.42.08,1.76.52,2.12a1.12,1.12,0,0,0,.82.29,10,10,0,0,0,1.33-.16l.4,0a2.34,2.34,0,0,1,2.08,1.26l.91,1.73a2.29,2.29,0,0,1,.27,1.09,2.32,2.32,0,0,1-.66,1.63C25.24,26.69,25,27,25,27.5c0,0,0,.09,0,.14.05.57.3.8,1.43,1.62a2.33,2.33,0,0,1,.89,2.62l-.58,1.87a2.35,2.35,0,0,1-2.2,1.65c-1.43,0-1.76.08-2.12.51a1.12,1.12,0,0,0-.29.83,8.59,8.59,0,0,0,.16,1.33,2.77,2.77,0,0,1,0,.39A2.35,2.35,0,0,1,21,40.55l-1.74.91a2.37,2.37,0,0,1-2.71-.39c-1-1-1.3-1.18-1.86-1.14s-.8.3-1.62,1.43A2.39,2.39,0,0,1,11.17,42.36ZM18,39.07ZM3.29,33h0Zm-.74-7.14h0Zm21.56-1.53Z"/><circle class="cls-2" cx="13.7" cy="28.66" r="3.53"/></g></g></svg>